<svg width="32" height="32" viewBox="0 0 32 32" fill="none" xmlns="http://www.w3.org/2000/svg">
<g clip-path="url(#clip0)">
<path d="M19 17.5C19.0034 18.8199 18.6951 20.1219 18.1 21.3C17.3944 22.7117 16.3098 23.8992 14.9674 24.7293C13.6251 25.5594 12.0782 25.9994 10.5 26C9.18013 26.0034 7.87812 25.6951 6.7 25.1L1 27L2.9 21.3C2.30493 20.1219 1.99656 18.8199 2 17.5C2.00061 15.9218 2.44061 14.3749 3.27072 13.0325C4.10083 11.6902 5.28825 10.6056 6.7 9.9C7.87812 9.30493 9.18013 8.99656 10.5 9H11C13.0843 9.11499 15.053 9.99476 16.5291 11.4709C18.0052 12.947 18.885 14.9157 19 17V17.5Z" stroke="white" stroke-width="2" stroke-linecap="round" stroke-linejoin="round"/>
<circle cx="7" cy="17" r="1" fill="white"/>
<path d="M12.3539 9C12.7561 7.67741 13.4788 6.46289 14.4709 5.47086C15.947 3.99476 17.9157 3.11499 20 3H20.5C21.8199 2.99656 23.1219 3.30493 24.3 3.9C25.7117 4.60557 26.8992 5.69025 27.7293 7.03255C28.5594 8.37485 28.9994 9.92176 29 11.5C29.0034 12.8199 28.6951 14.1219 28.1 15.3L30 21L24.3 19.1C23.1219 19.6951 21.8199 20.0034 20.5 20C19.9374 19.9998 19.3788 19.9437 18.832 19.8341" stroke="white" stroke-width="2" stroke-linecap="round" stroke-linejoin="round"/>
<circle cx="10" cy="17" r="1" fill="white"/>
<circle cx="13" cy="17" r="1" fill="white"/>
</g>
<defs>
<clipPath id="clip0">
<rect width="32" height="32" fill="white"/>
</clipPath>
</defs>
</svg>
