<svg width="312" height="53" viewBox="0 0 312 53" fill="none" xmlns="http://www.w3.org/2000/svg">
<path d="M73.3517 18.3166V25.4194H81.9813V28.3401H73.3517V35.6089H82.977V38.6956H69.568V15.263H82.977V18.3166H73.3517ZM108.854 20.1089C111.022 20.1089 112.748 20.7948 114.032 22.1667C115.337 23.5386 115.99 25.4968 115.99 28.0414V38.6956H112.206V28.4397C112.206 26.8466 111.808 25.6185 111.011 24.7556C110.215 23.8705 109.12 23.4279 107.726 23.4279C106.243 23.4279 105.059 23.9037 104.174 24.8551C103.311 25.7845 102.88 27.1563 102.88 28.9708V38.6956H99.096V28.4397C99.096 26.8466 98.6977 25.6185 97.9011 24.7556C97.1045 23.8705 96.0092 23.4279 94.6152 23.4279C93.1327 23.4279 91.9489 23.9037 91.0638 24.8551C90.2009 25.7845 89.7694 27.1563 89.7694 28.9708V38.6956H85.9857V20.4076H89.7694V24.2245C90.2341 22.8969 91.0085 21.879 92.0927 21.171C93.177 20.4629 94.4493 20.1089 95.9097 20.1089C97.4364 20.1089 98.753 20.485 99.8593 21.2374C100.988 21.9897 101.807 23.0739 102.315 24.49C102.846 23.1182 103.698 22.045 104.871 21.2705C106.044 20.4961 107.371 20.1089 108.854 20.1089ZM119.213 15.0971C119.213 14.4554 119.434 13.9244 119.877 13.5039C120.319 13.0835 120.906 12.8733 121.636 12.8733C122.366 12.8733 122.953 13.0835 123.395 13.5039C123.86 13.9244 124.092 14.4554 124.092 15.0971C124.092 15.7388 123.86 16.2588 123.395 16.6571C122.953 17.0553 122.366 17.2545 121.636 17.2545C120.906 17.2545 120.319 17.0553 119.877 16.6571C119.434 16.2588 119.213 15.7388 119.213 15.0971ZM123.528 20.4076V38.6956H119.744V20.4076H123.528ZM131.227 23.9922C131.846 22.7973 132.731 21.8569 133.882 21.171C135.032 20.4629 136.36 20.1089 137.865 20.1089V24.2245H136.736C135.077 24.2245 133.738 24.6339 132.72 25.4526C131.724 26.2491 131.227 27.5768 131.227 29.4354V38.6956H127.443V20.4076H131.227V23.9922ZM147.371 20.1753C149.03 20.1753 150.447 20.5846 151.619 21.4033C152.792 22.222 153.622 23.3062 154.109 24.656V20.4076H157.892V38.6956H154.109V34.4472C153.622 35.797 152.792 36.8812 151.619 37.6999C150.447 38.5186 149.03 38.928 147.371 38.928C145.778 38.928 144.351 38.5518 143.089 37.7995C141.85 37.0472 140.877 35.9629 140.169 34.5468C139.46 33.1307 139.106 31.4601 139.106 29.535C139.106 27.6321 139.46 25.9726 140.169 24.5564C140.877 23.1403 141.85 22.0561 143.089 21.3037C144.351 20.5514 145.778 20.1753 147.371 20.1753ZM148.533 23.4943C146.851 23.4943 145.501 24.0364 144.483 25.1207C143.488 26.1828 142.99 27.6542 142.99 29.535C142.99 31.4158 143.488 32.8983 144.483 33.9826C145.501 35.0447 146.851 35.5757 148.533 35.5757C149.595 35.5757 150.546 35.3323 151.387 34.8455C152.228 34.3366 152.892 33.6285 153.378 32.7213C153.865 31.8141 154.109 30.752 154.109 29.535C154.109 28.3401 153.865 27.2891 153.378 26.3819C152.892 25.4526 152.228 24.7445 151.387 24.2577C150.546 23.7488 149.595 23.4943 148.533 23.4943ZM170.963 35.4097V38.6956H168.64C166.692 38.6956 165.21 38.2309 164.192 37.3016C163.196 36.3501 162.698 34.7791 162.698 32.5885V23.6271H160.076V20.4076H162.698V15.8605H166.515V20.4076H170.93V23.6271H166.515V32.6549C166.515 33.6949 166.703 34.414 167.08 34.8123C167.478 35.2106 168.164 35.4097 169.137 35.4097H170.963ZM190.837 28.6721C190.837 29.2916 190.793 29.8337 190.704 30.2984H176.632C176.698 32.1792 177.218 33.5732 178.191 34.4804C179.165 35.3876 180.371 35.8412 181.809 35.8412C183.071 35.8412 184.133 35.5204 184.996 34.8787C185.881 34.237 186.423 33.3851 186.622 32.323H190.671C190.428 33.6064 189.919 34.7459 189.144 35.7417C188.37 36.7374 187.363 37.5229 186.124 38.0982C184.885 38.6514 183.502 38.928 181.975 38.928C180.205 38.928 178.634 38.5518 177.262 37.7995C175.912 37.0472 174.85 35.9629 174.076 34.5468C173.301 33.1307 172.914 31.4601 172.914 29.535C172.914 27.6321 173.301 25.9726 174.076 24.5564C174.85 23.1403 175.912 22.0561 177.262 21.3037C178.634 20.5514 180.205 20.1753 181.975 20.1753C183.768 20.1753 185.327 20.5514 186.655 21.3037C188.005 22.0339 189.034 23.0518 189.742 24.3573C190.472 25.6406 190.837 27.0789 190.837 28.6721ZM187.02 28.5725C187.064 27.3776 186.854 26.3819 186.39 25.5853C185.947 24.7666 185.327 24.1692 184.531 23.793C183.756 23.3947 182.905 23.1956 181.975 23.1956C180.493 23.1956 179.254 23.6492 178.258 24.5564C177.262 25.4636 176.72 26.8023 176.632 28.5725H187.02ZM199.834 20.1753C201.98 20.1753 203.695 20.7284 204.979 21.8348C206.284 22.919 207.081 24.3794 207.368 26.2159H203.784C203.629 25.2202 203.197 24.4237 202.489 23.8262C201.803 23.2067 200.885 22.8969 199.735 22.8969C198.783 22.8969 198.042 23.1292 197.511 23.5939C197.002 24.0364 196.747 24.6449 196.747 25.4194C196.747 25.9947 196.935 26.4593 197.312 26.8134C197.688 27.1674 198.152 27.444 198.706 27.6431C199.281 27.8423 200.089 28.0636 201.129 28.307C202.5 28.6167 203.607 28.9376 204.448 29.2695C205.311 29.6014 206.041 30.1324 206.638 30.8626C207.258 31.5707 207.568 32.5443 207.568 33.7834C207.568 35.3102 206.981 36.5493 205.808 37.5008C204.658 38.4522 203.098 38.928 201.129 38.928C198.849 38.928 197.002 38.3969 195.586 37.3348C194.192 36.2727 193.351 34.7902 193.063 32.8873H196.747C196.858 33.883 197.301 34.6906 198.075 35.3102C198.849 35.9297 199.867 36.2395 201.129 36.2395C202.036 36.2395 202.744 36.0072 203.253 35.5425C203.784 35.0557 204.049 34.4472 204.049 33.717C204.049 33.0753 203.85 32.5664 203.452 32.1903C203.054 31.8141 202.556 31.5264 201.958 31.3273C201.361 31.106 200.542 30.8848 199.502 30.6635C198.175 30.3537 197.09 30.0439 196.25 29.7342C195.431 29.4244 194.723 28.9265 194.125 28.2406C193.55 27.5325 193.262 26.581 193.262 25.3862C193.262 23.8373 193.838 22.5871 194.988 21.6356C196.161 20.6621 197.776 20.1753 199.834 20.1753ZM228.302 20.1753C229.895 20.1753 231.311 20.5514 232.55 21.3037C233.811 22.0561 234.796 23.1403 235.504 24.5564C236.212 25.9726 236.566 27.6321 236.566 29.535C236.566 31.4601 236.212 33.1307 235.504 34.5468C234.796 35.9629 233.811 37.0472 232.55 37.7995C231.311 38.5518 229.895 38.928 228.302 38.928C226.642 38.928 225.226 38.5186 224.053 37.6999C222.88 36.8812 222.062 35.797 221.597 34.4472V47.3916H217.813V20.4076H221.597V24.656C222.062 23.3062 222.88 22.222 224.053 21.4033C225.226 20.5846 226.642 20.1753 228.302 20.1753ZM227.14 23.4943C226.078 23.4943 225.126 23.7488 224.285 24.2577C223.445 24.7445 222.781 25.4526 222.294 26.3819C221.807 27.2891 221.564 28.3401 221.564 29.535C221.564 30.752 221.807 31.8141 222.294 32.7213C222.781 33.6285 223.445 34.3366 224.285 34.8455C225.126 35.3323 226.078 35.5757 227.14 35.5757C228.822 35.5757 230.171 35.0447 231.189 33.9826C232.207 32.8983 232.716 31.4158 232.716 29.535C232.716 27.6763 232.207 26.2049 231.189 25.1207C230.171 24.0364 228.822 23.4943 227.14 23.4943ZM246.882 20.1753C248.541 20.1753 249.957 20.5846 251.13 21.4033C252.303 22.222 253.133 23.3062 253.619 24.656V20.4076H257.403V38.6956H253.619V34.4472C253.133 35.797 252.303 36.8812 251.13 37.6999C249.957 38.5186 248.541 38.928 246.882 38.928C245.289 38.928 243.861 38.5518 242.6 37.7995C241.361 37.0472 240.387 35.9629 239.679 34.5468C238.971 33.1307 238.617 31.4601 238.617 29.535C238.617 27.6321 238.971 25.9726 239.679 24.5564C240.387 23.1403 241.361 22.0561 242.6 21.3037C243.861 20.5514 245.289 20.1753 246.882 20.1753ZM248.043 23.4943C246.362 23.4943 245.012 24.0364 243.994 25.1207C242.998 26.1828 242.501 27.6542 242.501 29.535C242.501 31.4158 242.998 32.8983 243.994 33.9826C245.012 35.0447 246.362 35.5757 248.043 35.5757C249.106 35.5757 250.057 35.3323 250.898 34.8455C251.739 34.3366 252.402 33.6285 252.889 32.7213C253.376 31.8141 253.619 30.752 253.619 29.535C253.619 28.3401 253.376 27.2891 252.889 26.3819C252.402 25.4526 251.739 24.7445 250.898 24.2577C250.057 23.7488 249.106 23.4943 248.043 23.4943ZM265.064 23.9922C265.683 22.7973 266.568 21.8569 267.719 21.171C268.87 20.4629 270.197 20.1089 271.702 20.1089V24.2245H270.573C268.914 24.2245 267.575 24.6339 266.557 25.4526C265.562 26.2491 265.064 27.5768 265.064 29.4354V38.6956H261.28V20.4076H265.064V23.9922ZM283.067 35.4097V38.6956H280.743C278.796 38.6956 277.314 38.2309 276.296 37.3016C275.3 36.3501 274.802 34.7791 274.802 32.5885V23.6271H272.18V20.4076H274.802V15.8605H278.619V20.4076H283.034V23.6271H278.619V32.6549C278.619 33.6949 278.807 34.414 279.184 34.8123C279.582 35.2106 280.268 35.4097 281.241 35.4097H283.067ZM288.105 20.4076L293.581 33.8498L298.659 20.4076H302.875L291.822 47.3916H287.607L291.557 38.2641L283.856 20.4076H288.105Z" fill="white"/>
<path d="M27.8476 8.56778H23.3984V29.7542H44.373V8.56778H39.5001" stroke="white" stroke-opacity="0.47" stroke-width="2.9661"/>
<path d="M33.7671 28.2958V24.8824" stroke="white" stroke-opacity="0.47" stroke-width="2.9661"/>
<path d="M52.8475 2H2V50.7288H8.99153L8.5678 9.41525H16.1949V52" stroke="white" stroke-width="2.9661"/>
<rect x="29.7539" y="15.3474" width="8.05085" height="8.05085" stroke="white" stroke-opacity="0.47" stroke-width="2.9661"/>
<path d="M51.1519 7.93219V41.4068" stroke="white" stroke-width="2.9661"/>
<path d="M22.1279 50.5169H51.1534V45.4322" stroke="white" stroke-opacity="0.47" stroke-width="2.9661"/>
<path d="M21.9155 36.7457H30.1782V44.161" stroke="white" stroke-width="2.9661"/>
<path d="M21.9155 43.7373H37.3816M37.3816 43.7373H44.585V36.322H37.3816V43.7373Z" stroke="white" stroke-width="2.9661"/>
</svg>
