<svg width="223" height="31" viewBox="0 0 223 31" fill="none" xmlns="http://www.w3.org/2000/svg">
<path d="M2.51952 30V0.845519H13.0655V2.96912H5.291V13.911H11.6258V15.9267H5.291V27.9484H13.1375V30H2.51952ZM17.1845 30L17.9044 0.845519H20.6398L26.3988 26.1487L32.2656 0.845519H35.0011L35.721 30H33.4534L32.8775 6.7844L27.2986 30H25.5349L20.028 6.82039L19.4521 30H17.1845ZM41.1768 30V0.845519H43.9122V30H41.1768ZM49.6236 30V0.845519H56.2104C58.034 0.845519 59.4618 1.14546 60.4936 1.74535C61.5494 2.32124 62.3052 3.17308 62.7611 4.30087C63.2171 5.40466 63.445 6.72441 63.445 8.26012C63.445 9.33991 63.325 10.3597 63.0851 11.3195C62.8451 12.2794 62.4372 13.0952 61.8613 13.7671C61.2854 14.4389 60.4696 14.8829 59.4138 15.0988L63.8769 30H61.2134L56.9302 15.6747H52.3591V30H49.6236ZM52.3591 13.6591H56.0664C57.2902 13.6591 58.238 13.4551 58.9099 13.0472C59.5817 12.6393 60.0617 12.0394 60.3496 11.2476C60.6375 10.4557 60.7815 9.45989 60.7815 8.26012C60.7815 6.46046 60.4696 5.11671 59.8457 4.22888C59.2218 3.34105 57.986 2.89713 56.1384 2.89713H52.3591V13.6591ZM66.9982 30L73.153 0.845519H76.0325L82.2233 30H79.5238L78.0841 22.1895H71.1374L69.6617 30H66.9982ZM71.5334 20.2099H77.7242L74.6288 4.48083L71.5334 20.2099ZM88.5736 30V2.96912H83.0666V0.845519H96.6721V2.96912H91.3091V30H88.5736ZM100.382 30V0.845519H110.928V2.96912H103.153V13.911H109.488V15.9267H103.153V27.9484H111V30H100.382ZM121.489 30.3599C119.906 30.3599 118.586 30.036 117.53 29.3881C116.498 28.7162 115.718 27.7924 115.191 26.6166C114.663 25.4169 114.339 24.0251 114.219 22.4414L116.63 21.7216C116.75 22.9213 116.966 24.0131 117.278 24.9969C117.59 25.9568 118.082 26.7246 118.754 27.3005C119.426 27.8524 120.35 28.1284 121.525 28.1284C122.821 28.1284 123.829 27.7924 124.549 27.1205C125.269 26.4487 125.629 25.3809 125.629 23.9172C125.629 22.6214 125.305 21.5056 124.657 20.5698C124.033 19.634 123.169 18.6501 122.065 17.6183L116.918 12.6873C116.006 11.7994 115.335 10.8876 114.903 9.9518C114.471 8.99198 114.255 7.94818 114.255 6.82039C114.255 4.80477 114.855 3.25706 116.054 2.17727C117.254 1.09747 118.85 0.557576 120.841 0.557576C121.873 0.557576 122.797 0.68955 123.613 0.9535C124.453 1.21745 125.161 1.64937 125.737 2.24925C126.336 2.82515 126.804 3.581 127.14 4.51683C127.476 5.45265 127.704 6.59243 127.824 7.93618L125.485 8.54806C125.389 7.32429 125.185 6.28049 124.873 5.41665C124.585 4.52882 124.117 3.85695 123.469 3.40104C122.845 2.94512 121.969 2.71717 120.841 2.71717C119.642 2.71717 118.658 3.02911 117.89 3.65299C117.122 4.27687 116.738 5.24869 116.738 6.56844C116.738 7.36029 116.882 8.08015 117.17 8.72803C117.482 9.37591 118.022 10.0718 118.79 10.8156L123.937 15.6747C125.089 16.7545 126.084 17.9543 126.924 19.274C127.764 20.5938 128.184 22.0815 128.184 23.7372C128.184 25.2009 127.896 26.4247 127.32 27.4085C126.768 28.3923 125.989 29.1362 124.981 29.6401C123.973 30.12 122.809 30.3599 121.489 30.3599ZM140.28 30V0.845519H147.263C149.014 0.845519 150.394 1.16946 151.402 1.81734C152.41 2.46521 153.118 3.36504 153.526 4.51683C153.957 5.66861 154.173 7.02435 154.173 8.58406C154.173 9.9518 153.945 11.2236 153.49 12.3993C153.058 13.5511 152.326 14.4749 151.294 15.1708C150.286 15.8667 148.954 16.2146 147.299 16.2146H143.016V30H140.28ZM143.016 14.163H146.507C147.683 14.163 148.63 13.995 149.35 13.6591C150.094 13.2992 150.634 12.7113 150.97 11.8954C151.306 11.0796 151.474 9.97579 151.474 8.58406C151.474 7.09634 151.33 5.94456 151.042 5.12871C150.754 4.28887 150.25 3.71298 149.53 3.40104C148.834 3.0651 147.839 2.89713 146.543 2.89713H143.016V14.163ZM155.159 30L161.314 0.845519H164.193L170.384 30H167.685L166.245 22.1895H159.298L157.823 30H155.159ZM159.694 20.2099H165.885L162.79 4.48083L159.694 20.2099ZM174.436 30V0.845519H181.022C182.846 0.845519 184.274 1.14546 185.306 1.74535C186.361 2.32124 187.117 3.17308 187.573 4.30087C188.029 5.40466 188.257 6.72441 188.257 8.26012C188.257 9.33991 188.137 10.3597 187.897 11.3195C187.657 12.2794 187.249 13.0952 186.673 13.7671C186.097 14.4389 185.282 14.8829 184.226 15.0988L188.689 30H186.025L181.742 15.6747H177.171V30H174.436ZM177.171 13.6591H180.878C182.102 13.6591 183.05 13.4551 183.722 13.0472C184.394 12.6393 184.874 12.0394 185.162 11.2476C185.45 10.4557 185.593 9.45989 185.593 8.26012C185.593 6.46046 185.282 5.11671 184.658 4.22888C184.034 3.34105 182.798 2.89713 180.95 2.89713H177.171V13.6591ZM196.642 30V2.96912H191.135V0.845519H204.74V2.96912H199.377V30H196.642ZM213.129 30V20.3178L206.542 0.845519H209.206L214.461 17.0425L219.5 0.845519H222.199L215.792 20.3178V30H213.129Z" fill="white"/>
<path d="M2.51952 30H2.08752V30.432H2.51952V30ZM2.51952 0.845519V0.413519H2.08752V0.845519H2.51952ZM13.0655 0.845519H13.4975V0.413519H13.0655V0.845519ZM13.0655 2.96912V3.40112H13.4975V2.96912H13.0655ZM5.291 2.96912V2.53712H4.859V2.96912H5.291ZM5.291 13.911H4.859V14.343H5.291V13.911ZM11.6258 13.911H12.0578V13.479H11.6258V13.911ZM11.6258 15.9267V16.3587H12.0578V15.9267H11.6258ZM5.291 15.9267V15.4947H4.859V15.9267H5.291ZM5.291 27.9484H4.859V28.3804H5.291V27.9484ZM13.1375 27.9484H13.5695V27.5164H13.1375V27.9484ZM13.1375 30V30.432H13.5695V30H13.1375ZM2.95152 30V0.845519H2.08752V30H2.95152ZM2.51952 1.27752H13.0655V0.413519H2.51952V1.27752ZM12.6335 0.845519V2.96912H13.4975V0.845519H12.6335ZM13.0655 2.53712H5.291V3.40112H13.0655V2.53712ZM4.859 2.96912V13.911H5.723V2.96912H4.859ZM5.291 14.343H11.6258V13.479H5.291V14.343ZM11.1938 13.911V15.9267H12.0578V13.911H11.1938ZM11.6258 15.4947H5.291V16.3587H11.6258V15.4947ZM4.859 15.9267V27.9484H5.723V15.9267H4.859ZM5.291 28.3804H13.1375V27.5164H5.291V28.3804ZM12.7055 27.9484V30H13.5695V27.9484H12.7055ZM13.1375 29.568H2.51952V30.432H13.1375V29.568ZM17.1845 30L16.7526 29.9893L16.7417 30.432H17.1845V30ZM17.9044 0.845519V0.413519H17.4829L17.4725 0.834856L17.9044 0.845519ZM20.6398 0.845519L21.0611 0.74965L20.9846 0.413519H20.6398V0.845519ZM26.3988 26.1487L25.9775 26.2446L26.8196 26.2463L26.3988 26.1487ZM32.2656 0.845519V0.413519H31.9223L31.8448 0.747943L32.2656 0.845519ZM35.0011 0.845519L35.433 0.834856L35.4226 0.413519H35.0011V0.845519ZM35.721 30V30.432H36.1638L36.1529 29.9893L35.721 30ZM33.4534 30L33.0215 30.0107L33.032 30.432H33.4534V30ZM32.8775 6.7844L33.3094 6.77368L32.4575 6.68346L32.8775 6.7844ZM27.2986 30V30.432H27.6391L27.7186 30.1009L27.2986 30ZM25.5349 30L25.1146 30.0999L25.1935 30.432H25.5349V30ZM20.028 6.82039L20.4483 6.72053L19.5961 6.80966L20.028 6.82039ZM19.4521 30V30.432H19.8735L19.8839 30.0107L19.4521 30ZM17.6164 30.0107L18.3362 0.856183L17.4725 0.834856L16.7526 29.9893L17.6164 30.0107ZM17.9044 1.27752H20.6398V0.413519H17.9044V1.27752ZM20.2186 0.941389L25.9775 26.2446L26.82 26.0529L21.0611 0.74965L20.2186 0.941389ZM26.8196 26.2463L32.6865 0.943096L31.8448 0.747943L25.9779 26.0512L26.8196 26.2463ZM32.2656 1.27752H35.0011V0.413519H32.2656V1.27752ZM34.5693 0.856183L35.2891 30.0107L36.1529 29.9893L35.433 0.834856L34.5693 0.856183ZM35.721 29.568H33.4534V30.432H35.721V29.568ZM33.8853 29.9893L33.3094 6.77368L32.4457 6.79511L33.0215 30.0107L33.8853 29.9893ZM32.4575 6.68346L26.8785 29.8991L27.7186 30.1009L33.2976 6.88534L32.4575 6.68346ZM27.2986 29.568H25.5349V30.432H27.2986V29.568ZM25.9552 29.9001L20.4483 6.72053L19.6077 6.92024L25.1146 30.0999L25.9552 29.9001ZM19.5961 6.80966L19.0202 29.9893L19.8839 30.0107L20.4598 6.83112L19.5961 6.80966ZM19.4521 29.568H17.1845V30.432H19.4521V29.568ZM41.1768 30H40.7448V30.432H41.1768V30ZM41.1768 0.845519V0.413519H40.7448V0.845519H41.1768ZM43.9122 0.845519H44.3442V0.413519H43.9122V0.845519ZM43.9122 30V30.432H44.3442V30H43.9122ZM41.6088 30V0.845519H40.7448V30H41.6088ZM41.1768 1.27752H43.9122V0.413519H41.1768V1.27752ZM43.4802 0.845519V30H44.3442V0.845519H43.4802ZM43.9122 29.568H41.1768V30.432H43.9122V29.568ZM49.6236 30H49.1916V30.432H49.6236V30ZM49.6236 0.845519V0.413519H49.1916V0.845519H49.6236ZM60.4936 1.74535L60.2764 2.11896L60.2867 2.1246L60.4936 1.74535ZM62.7611 4.30087L62.3606 4.46278L62.3619 4.46579L62.7611 4.30087ZM63.0851 11.3195L62.666 11.2148L62.666 11.2148L63.0851 11.3195ZM61.8613 13.7671L61.5333 13.4859L61.5333 13.4859L61.8613 13.7671ZM59.4138 15.0988L59.3272 14.6756L58.8644 14.7702L58.9999 15.2228L59.4138 15.0988ZM63.8769 30V30.432H64.4573L64.2908 29.876L63.8769 30ZM61.2134 30L60.7995 30.1238L60.8917 30.432H61.2134V30ZM56.9302 15.6747L57.3441 15.551L57.252 15.2427H56.9302V15.6747ZM52.3591 15.6747V15.2427H51.9271V15.6747H52.3591ZM52.3591 30V30.432H52.7911V30H52.3591ZM52.3591 13.6591H51.9271V14.0911H52.3591V13.6591ZM58.9099 13.0472L59.1341 13.4165L59.1341 13.4165L58.9099 13.0472ZM60.3496 11.2476L59.9436 11.0999L60.3496 11.2476ZM52.3591 2.89713V2.46513H51.9271V2.89713H52.3591ZM50.0556 30V0.845519H49.1916V30H50.0556ZM49.6236 1.27752H56.2104V0.413519H49.6236V1.27752ZM56.2104 1.27752C57.9948 1.27752 59.3365 1.57236 60.2764 2.11882L60.7107 1.37188C59.587 0.718562 58.0733 0.413519 56.2104 0.413519V1.27752ZM60.2867 2.1246C61.2537 2.65203 61.9417 3.4265 62.3606 4.46277L63.1617 4.13896C62.6687 2.91966 61.8451 1.99045 60.7004 1.3661L60.2867 2.1246ZM62.3619 4.46579C62.791 5.50465 63.013 6.76551 63.013 8.26012H63.877C63.877 6.6833 63.6432 5.30466 63.1604 4.13595L62.3619 4.46579ZM63.013 8.26012C63.013 9.30778 62.8966 10.2922 62.666 11.2148L63.5042 11.4243C63.7534 10.4273 63.877 9.37204 63.877 8.26012H63.013ZM62.666 11.2148C62.4404 12.1173 62.0606 12.8707 61.5333 13.4859L62.1893 14.0482C62.8138 13.3197 63.2499 12.4414 63.5042 11.4243L62.666 11.2148ZM61.5333 13.4859C61.0326 14.0701 60.31 14.4746 59.3272 14.6756L59.5003 15.5221C60.6291 15.2912 61.5383 14.8077 62.1893 14.0482L61.5333 13.4859ZM58.9999 15.2228L63.4631 30.124L64.2908 29.876L59.8276 14.9749L58.9999 15.2228ZM63.8769 29.568H61.2134V30.432H63.8769V29.568ZM61.6273 29.8762L57.3441 15.551L56.5164 15.7985L60.7995 30.1238L61.6273 29.8762ZM56.9302 15.2427H52.3591V16.1067H56.9302V15.2427ZM51.9271 15.6747V30H52.7911V15.6747H51.9271ZM52.3591 29.568H49.6236V30.432H52.3591V29.568ZM52.3591 14.0911H56.0664V13.2271H52.3591V14.0911ZM56.0664 14.0911C57.3289 14.0911 58.3669 13.8823 59.1341 13.4165L58.6857 12.6779C58.1091 13.028 57.2515 13.2271 56.0664 13.2271V14.0911ZM59.1341 13.4165C59.8963 12.9537 60.4366 12.2723 60.7556 11.3952L59.9436 11.0999C59.6867 11.8065 59.2672 12.3249 58.6857 12.6779L59.1341 13.4165ZM60.7556 11.3952C61.0664 10.5406 61.2135 9.49065 61.2135 8.26012H60.3495C60.3495 9.42913 60.2087 10.3708 59.9436 11.0999L60.7556 11.3952ZM61.2135 8.26012C61.2135 6.42456 60.8979 4.9749 60.1992 3.9805L59.4922 4.47726C60.0412 5.25853 60.3495 6.49635 60.3495 8.26012H61.2135ZM60.1992 3.9805C59.4509 2.91567 58.0286 2.46513 56.1384 2.46513V3.32913C57.9435 3.32913 58.9927 3.76643 59.4922 4.47726L60.1992 3.9805ZM56.1384 2.46513H52.3591V3.32913H56.1384V2.46513ZM51.9271 2.89713V13.6591H52.7911V2.89713H51.9271ZM66.9982 30L66.5755 29.9108L66.4655 30.432H66.9982V30ZM73.153 0.845519V0.413519H72.8027L72.7304 0.756286L73.153 0.845519ZM76.0325 0.845519L76.4551 0.755787L76.3824 0.413519H76.0325V0.845519ZM82.2233 30V30.432H82.7567L82.6459 29.9103L82.2233 30ZM79.5238 30L79.099 30.0783L79.1642 30.432H79.5238V30ZM78.0841 22.1895L78.509 22.1112L78.4438 21.7575H78.0841V22.1895ZM71.1374 22.1895V21.7575H70.7794L70.7129 22.1093L71.1374 22.1895ZM69.6617 30V30.432H70.0197L70.0862 30.0802L69.6617 30ZM71.5334 20.2099L71.1095 20.1264L71.0081 20.6419H71.5334V20.2099ZM77.7242 20.2099V20.6419H78.2495L78.1481 20.1264L77.7242 20.2099ZM74.6288 4.48083L75.0526 4.39742L74.2049 4.39742L74.6288 4.48083ZM67.4209 30.0892L73.5757 0.934753L72.7304 0.756286L66.5755 29.9108L67.4209 30.0892ZM73.153 1.27752H76.0325V0.413519H73.153V1.27752ZM75.6099 0.935252L81.8008 30.0897L82.6459 29.9103L76.4551 0.755787L75.6099 0.935252ZM82.2233 29.568H79.5238V30.432H82.2233V29.568ZM79.9487 29.9217L78.509 22.1112L77.6593 22.2678L79.099 30.0783L79.9487 29.9217ZM78.0841 21.7575H71.1374V22.6215H78.0841V21.7575ZM70.7129 22.1093L69.2372 29.9198L70.0862 30.0802L71.5619 22.2697L70.7129 22.1093ZM69.6617 29.568H66.9982V30.432H69.6617V29.568ZM71.5334 20.6419H77.7242V19.7779H71.5334V20.6419ZM78.1481 20.1264L75.0526 4.39742L74.2049 4.56425L77.3003 20.2933L78.1481 20.1264ZM74.2049 4.39742L71.1095 20.1264L71.9572 20.2933L75.0526 4.56425L74.2049 4.39742ZM88.5736 30H88.1416V30.432H88.5736V30ZM88.5736 2.96912H89.0056V2.53712H88.5736V2.96912ZM83.0666 2.96912H82.6346V3.40112H83.0666V2.96912ZM83.0666 0.845519V0.413519H82.6346V0.845519H83.0666ZM96.6721 0.845519H97.1041V0.413519H96.6721V0.845519ZM96.6721 2.96912V3.40112H97.1041V2.96912H96.6721ZM91.3091 2.96912V2.53712H90.8771V2.96912H91.3091ZM91.3091 30V30.432H91.7411V30H91.3091ZM89.0056 30V2.96912H88.1416V30H89.0056ZM88.5736 2.53712H83.0666V3.40112H88.5736V2.53712ZM83.4986 2.96912V0.845519H82.6346V2.96912H83.4986ZM83.0666 1.27752H96.6721V0.413519H83.0666V1.27752ZM96.2401 0.845519V2.96912H97.1041V0.845519H96.2401ZM96.6721 2.53712H91.3091V3.40112H96.6721V2.53712ZM90.8771 2.96912V30H91.7411V2.96912H90.8771ZM91.3091 29.568H88.5736V30.432H91.3091V29.568ZM100.382 30H99.9496V30.432H100.382V30ZM100.382 0.845519V0.413519H99.9496V0.845519H100.382ZM110.928 0.845519H111.36V0.413519H110.928V0.845519ZM110.928 2.96912V3.40112H111.36V2.96912H110.928ZM103.153 2.96912V2.53712H102.721V2.96912H103.153ZM103.153 13.911H102.721V14.343H103.153V13.911ZM109.488 13.911H109.92V13.479H109.488V13.911ZM109.488 15.9267V16.3587H109.92V15.9267H109.488ZM103.153 15.9267V15.4947H102.721V15.9267H103.153ZM103.153 27.9484H102.721V28.3804H103.153V27.9484ZM111 27.9484H111.432V27.5164H111V27.9484ZM111 30V30.432H111.432V30H111ZM100.814 30V0.845519H99.9496V30H100.814ZM100.382 1.27752H110.928V0.413519H100.382V1.27752ZM110.496 0.845519V2.96912H111.36V0.845519H110.496ZM110.928 2.53712H103.153V3.40112H110.928V2.53712ZM102.721 2.96912V13.911H103.585V2.96912H102.721ZM103.153 14.343H109.488V13.479H103.153V14.343ZM109.056 13.911V15.9267H109.92V13.911H109.056ZM109.488 15.4947H103.153V16.3587H109.488V15.4947ZM102.721 15.9267V27.9484H103.585V15.9267H102.721ZM103.153 28.3804H111V27.5164H103.153V28.3804ZM110.568 27.9484V30H111.432V27.9484H110.568ZM111 29.568H100.382V30.432H111V29.568ZM117.53 29.3881L117.294 29.7503L117.304 29.7563L117.53 29.3881ZM115.191 26.6166L114.795 26.7906L114.796 26.7936L115.191 26.6166ZM114.219 22.4414L114.095 22.0275L113.762 22.127L113.788 22.4741L114.219 22.4414ZM116.63 21.7216L117.06 21.6786L117.008 21.158L116.507 21.3076L116.63 21.7216ZM117.278 24.9969L116.866 25.1275L116.867 25.1305L117.278 24.9969ZM118.754 27.3005L118.473 27.6286L118.48 27.6343L118.754 27.3005ZM124.549 27.1205L124.254 26.8047L124.254 26.8047L124.549 27.1205ZM124.657 20.5698L124.297 20.8095L124.302 20.8157L124.657 20.5698ZM122.065 17.6183L121.766 17.9303L121.77 17.9339L122.065 17.6183ZM116.918 12.6873L116.617 12.9968L116.619 12.9992L116.918 12.6873ZM114.903 9.9518L114.509 10.1291L114.51 10.1328L114.903 9.9518ZM116.054 2.17727L115.765 1.85616L115.765 1.85616L116.054 2.17727ZM123.613 0.9535L123.48 1.36454L123.483 1.36563L123.613 0.9535ZM125.737 2.24925L125.425 2.54843L125.431 2.55479L125.437 2.56089L125.737 2.24925ZM127.14 4.51683L126.734 4.66278L126.734 4.66278L127.14 4.51683ZM127.824 7.93618L127.933 8.35412L128.287 8.26167L128.254 7.89776L127.824 7.93618ZM125.485 8.54806L125.054 8.58184L125.094 9.09667L125.594 8.966L125.485 8.54806ZM124.873 5.41665L124.462 5.54993L124.464 5.55669L124.466 5.56338L124.873 5.41665ZM123.469 3.40104L123.214 3.74989L123.22 3.75433L123.469 3.40104ZM117.89 3.65299L117.618 3.31771L117.618 3.31771L117.89 3.65299ZM117.17 8.72803L116.775 8.90356L116.781 8.91544L117.17 8.72803ZM118.79 10.8156L118.489 11.1259L118.493 11.1298L118.79 10.8156ZM123.937 15.6747L123.64 15.9888L123.641 15.9899L123.937 15.6747ZM126.924 19.274L126.56 19.506L126.56 19.506L126.924 19.274ZM127.32 27.4085L126.947 27.1902L126.943 27.1971L127.32 27.4085ZM124.981 29.6401L125.166 30.0302L125.174 30.0265L124.981 29.6401ZM121.489 29.9279C119.964 29.9279 118.727 29.6159 117.756 29.0199L117.304 29.7563C118.444 30.456 119.848 30.7919 121.489 30.7919V29.9279ZM117.766 29.0261C116.807 28.4016 116.08 27.5436 115.585 26.4397L114.796 26.7936C115.357 28.0412 116.19 29.0309 117.294 29.7501L117.766 29.0261ZM115.586 26.4427C115.081 25.296 114.767 23.9537 114.65 22.4088L113.788 22.4741C113.911 24.0965 114.244 25.5377 114.795 26.7906L115.586 26.4427ZM114.342 22.8554L116.754 22.1355L116.507 21.3076L114.095 22.0275L114.342 22.8554ZM116.2 21.7646C116.323 22.9892 116.544 24.1109 116.866 25.1275L117.69 24.8664C117.388 23.9153 117.178 22.8534 117.06 21.6786L116.2 21.7646ZM116.867 25.1305C117.2 26.155 117.732 26.994 118.473 27.6285L119.035 26.9725C118.432 26.4552 117.98 25.7586 117.689 24.8634L116.867 25.1305ZM118.48 27.6343C119.252 28.2689 120.285 28.5604 121.525 28.5604V27.6964C120.414 27.6964 119.599 27.4359 119.028 26.9667L118.48 27.6343ZM121.525 28.5604C122.895 28.5604 124.021 28.204 124.844 27.4364L124.254 26.8047C123.637 27.3808 122.747 27.6964 121.525 27.6964V28.5604ZM124.844 27.4364C125.686 26.65 126.061 25.4422 126.061 23.9172H125.197C125.197 25.3195 124.851 26.2473 124.254 26.8047L124.844 27.4364ZM126.061 23.9172C126.061 22.5461 125.717 21.3417 125.012 20.3239L124.302 20.8157C124.893 21.6696 125.197 22.6967 125.197 23.9172H126.061ZM125.016 20.3302C124.369 19.359 123.481 18.3501 122.36 17.3028L121.77 17.9339C122.857 18.9502 123.697 19.9089 124.297 20.8094L125.016 20.3302ZM122.364 17.3064L117.217 12.3753L116.619 12.9992L121.766 17.9303L122.364 17.3064ZM117.22 12.3778C116.337 11.5185 115.7 10.6488 115.295 9.77076L114.51 10.1328C114.969 11.1265 115.676 12.0804 116.617 12.9968L117.22 12.3778ZM115.297 9.77452C114.891 8.87435 114.687 7.8915 114.687 6.82039H113.823C113.823 8.00485 114.05 9.10961 114.509 10.1291L115.297 9.77452ZM114.687 6.82039C114.687 4.8945 115.256 3.47663 116.343 2.49837L115.765 1.85616C114.453 3.03749 113.823 4.71504 113.823 6.82039H114.687ZM116.343 2.49837C117.446 1.50567 118.931 0.989576 120.841 0.989576V0.125575C118.769 0.125575 117.062 0.689276 115.765 1.85616L116.343 2.49837ZM120.841 0.989576C121.837 0.989576 122.715 1.11696 123.48 1.36452L123.746 0.542476C122.879 0.262136 121.91 0.125575 120.841 0.125575V0.989576ZM123.483 1.36563C124.258 1.60914 124.902 2.00397 125.425 2.54843L126.048 1.95008C125.419 1.29476 124.647 0.825762 123.742 0.541374L123.483 1.36563ZM125.437 2.56089C125.981 3.0824 126.416 3.77757 126.734 4.66278L127.547 4.37087C127.193 3.38443 126.692 2.56789 126.036 1.93762L125.437 2.56089ZM126.734 4.66278C127.054 5.55409 127.276 6.65546 127.394 7.9746L128.254 7.89776C128.132 6.52941 127.899 5.35121 127.547 4.37087L126.734 4.66278ZM127.715 7.51824L125.375 8.13012L125.594 8.966L127.933 8.35412L127.715 7.51824ZM125.915 8.51428C125.817 7.26402 125.608 6.18001 125.279 5.26993L124.466 5.56338C124.762 6.38097 124.96 7.38457 125.054 8.58184L125.915 8.51428ZM125.284 5.28338C124.972 4.32297 124.455 3.56663 123.718 3.04774L123.22 3.75433C123.779 4.14727 124.197 4.73468 124.462 5.54993L125.284 5.28338ZM123.724 3.05224C122.999 2.52253 122.021 2.28517 120.841 2.28517V3.14917C121.918 3.14917 122.691 3.36772 123.214 3.74983L123.724 3.05224ZM120.841 2.28517C119.564 2.28517 118.478 2.61875 117.618 3.31771L118.162 3.98827C118.838 3.43947 119.719 3.14917 120.841 3.14917V2.28517ZM117.618 3.31771C116.718 4.049 116.306 5.16504 116.306 6.56844H117.17C117.17 5.33233 117.527 4.50474 118.162 3.98827L117.618 3.31771ZM116.306 6.56844C116.306 7.41364 116.46 8.19424 116.775 8.90348L117.565 8.55258C117.304 7.96606 117.17 7.30693 117.17 6.56844H116.306ZM116.781 8.91544C117.123 9.62574 117.701 10.3622 118.489 11.1259L119.09 10.5054C118.343 9.78134 117.841 9.12607 117.559 8.54062L116.781 8.91544ZM118.493 11.1298L123.64 15.9888L124.233 15.3606L119.086 10.5015L118.493 11.1298ZM123.641 15.9899C124.767 17.0452 125.74 18.217 126.56 19.506L127.289 19.0421C126.429 17.6915 125.41 16.4639 124.232 15.3596L123.641 15.9899ZM126.56 19.506C127.353 20.7523 127.752 22.1586 127.752 23.7372H128.616C128.616 22.0044 128.175 20.4353 127.289 19.0421L126.56 19.506ZM127.752 23.7372C127.752 25.1456 127.475 26.2889 126.947 27.1903L127.693 27.6267C128.317 26.5604 128.616 25.2563 128.616 23.7372H127.752ZM126.943 27.1971C126.434 28.1056 125.718 28.7885 124.788 29.2537L125.174 30.0265C126.259 29.4838 127.103 28.679 127.697 27.6198L126.943 27.1971ZM124.795 29.25C123.855 29.6977 122.756 29.9279 121.489 29.9279V30.7919C122.862 30.7919 124.091 30.5422 125.166 30.0301L124.795 29.25ZM140.28 30H139.848V30.432H140.28V30ZM140.28 0.845519V0.413519H139.848V0.845519H140.28ZM153.526 4.51683L153.118 4.66107L153.121 4.66851L153.526 4.51683ZM153.49 12.3993L153.087 12.2431L153.085 12.2476L153.49 12.3993ZM151.294 15.1708L151.052 14.8126L151.049 14.8153L151.294 15.1708ZM143.016 16.2146V15.7826H142.584V16.2146H143.016ZM143.016 30V30.432H143.448V30H143.016ZM143.016 14.163H142.584V14.595H143.016V14.163ZM149.35 13.6591L149.533 14.0506L149.538 14.048L149.35 13.6591ZM150.97 11.8954L151.369 12.0599L151.369 12.0599L150.97 11.8954ZM151.042 5.12871L150.633 5.26882L150.635 5.27249L151.042 5.12871ZM149.53 3.40104L149.342 3.79008L149.35 3.79391L149.359 3.79742L149.53 3.40104ZM143.016 2.89713V2.46513H142.584V2.89713H143.016ZM140.712 30V0.845519H139.848V30H140.712ZM140.28 1.27752H147.263V0.413519H140.28V1.27752ZM147.263 1.27752C148.968 1.27752 150.255 1.59383 151.168 2.18072L151.636 1.45395C150.533 0.745084 149.061 0.413519 147.263 0.413519V1.27752ZM151.168 2.18072C152.094 2.77571 152.742 3.59761 153.118 4.66105L153.933 4.3726C153.494 3.13248 152.726 2.15472 151.636 1.45395L151.168 2.18072ZM153.121 4.66851C153.531 5.76074 153.741 7.06287 153.741 8.58406H154.605C154.605 6.98583 154.384 5.57647 153.93 4.36514L153.121 4.66851ZM153.741 8.58406C153.741 9.90292 153.522 11.1212 153.087 12.2432L153.892 12.5555C154.369 11.3259 154.605 10.0007 154.605 8.58406H153.741ZM153.085 12.2476C152.685 13.3143 152.011 14.1664 151.052 14.8126L151.536 15.529C152.641 14.7835 153.43 13.7879 153.894 12.551L153.085 12.2476ZM151.049 14.8153C150.134 15.4466 148.897 15.7826 147.299 15.7826V16.6466C149.012 16.6466 150.438 16.2868 151.539 15.5263L151.049 14.8153ZM147.299 15.7826H143.016V16.6466H147.299V15.7826ZM142.584 16.2146V30H143.448V16.2146H142.584ZM143.016 29.568H140.28V30.432H143.016V29.568ZM143.016 14.595H146.507V13.731H143.016V14.595ZM146.507 14.595C147.718 14.595 148.735 14.4229 149.533 14.0506L149.168 13.2676C148.526 13.5672 147.647 13.731 146.507 13.731V14.595ZM149.538 14.048C150.385 13.6385 150.996 12.9667 151.369 12.0599L150.571 11.7309C150.272 12.4558 149.804 12.9599 149.162 13.2702L149.538 14.048ZM151.369 12.0599C151.736 11.1705 151.906 10.0033 151.906 8.58406H151.042C151.042 9.94827 150.876 10.9886 150.571 11.7309L151.369 12.0599ZM151.906 8.58406C151.906 7.07732 151.761 5.86861 151.449 4.98493L150.635 5.27249C150.899 6.0205 151.042 7.11536 151.042 8.58406H151.906ZM151.451 4.9886C151.129 4.05056 150.549 3.37152 149.702 3.00465L149.359 3.79742C149.952 4.05444 150.379 4.52718 150.633 5.26882L151.451 4.9886ZM149.718 3.012C148.937 2.63483 147.865 2.46513 146.543 2.46513V3.32913C147.812 3.32913 148.732 3.49537 149.342 3.79008L149.718 3.012ZM146.543 2.46513H143.016V3.32913H146.543V2.46513ZM142.584 2.89713V14.163H143.448V2.89713H142.584ZM155.159 30L154.736 29.9108L154.626 30.432H155.159V30ZM161.314 0.845519V0.413519H160.964L160.891 0.756286L161.314 0.845519ZM164.193 0.845519L164.616 0.755787L164.543 0.413519H164.193V0.845519ZM170.384 30V30.432H170.918L170.807 29.9103L170.384 30ZM167.685 30L167.26 30.0783L167.325 30.432H167.685V30ZM166.245 22.1895L166.67 22.1112L166.605 21.7575H166.245V22.1895ZM159.298 22.1895V21.7575H158.94L158.874 22.1093L159.298 22.1895ZM157.823 30V30.432H158.181L158.247 30.0802L157.823 30ZM159.694 20.2099L159.27 20.1264L159.169 20.6419H159.694V20.2099ZM165.885 20.2099V20.6419H166.41L166.309 20.1264L165.885 20.2099ZM162.79 4.48083L163.213 4.39742L162.366 4.39742L162.79 4.48083ZM155.582 30.0892L161.737 0.934753L160.891 0.756286L154.736 29.9108L155.582 30.0892ZM161.314 1.27752H164.193V0.413519H161.314V1.27752ZM163.771 0.935252L169.962 30.0897L170.807 29.9103L164.616 0.755787L163.771 0.935252ZM170.384 29.568H167.685V30.432H170.384V29.568ZM168.109 29.9217L166.67 22.1112L165.82 22.2678L167.26 30.0783L168.109 29.9217ZM166.245 21.7575H159.298V22.6215H166.245V21.7575ZM158.874 22.1093L157.398 29.9198L158.247 30.0802L159.723 22.2697L158.874 22.1093ZM157.823 29.568H155.159V30.432H157.823V29.568ZM159.694 20.6419H165.885V19.7779H159.694V20.6419ZM166.309 20.1264L163.213 4.39742L162.366 4.56425L165.461 20.2933L166.309 20.1264ZM162.366 4.39742L159.27 20.1264L160.118 20.2933L163.213 4.56425L162.366 4.39742ZM174.436 30H174.004V30.432H174.436V30ZM174.436 0.845519V0.413519H174.004V0.845519H174.436ZM185.306 1.74535L185.088 2.11896L185.099 2.1246L185.306 1.74535ZM187.573 4.30087L187.173 4.46278L187.174 4.46579L187.573 4.30087ZM187.897 11.3195L187.478 11.2148L187.478 11.2148L187.897 11.3195ZM186.673 13.7671L186.345 13.4859L186.345 13.4859L186.673 13.7671ZM184.226 15.0988L184.139 14.6756L183.676 14.7702L183.812 15.2228L184.226 15.0988ZM188.689 30V30.432H189.269L189.103 29.876L188.689 30ZM186.025 30L185.612 30.1238L185.704 30.432H186.025V30ZM181.742 15.6747L182.156 15.551L182.064 15.2427H181.742V15.6747ZM177.171 15.6747V15.2427H176.739V15.6747H177.171ZM177.171 30V30.432H177.603V30H177.171ZM177.171 13.6591H176.739V14.0911H177.171V13.6591ZM183.722 13.0472L183.946 13.4165L183.946 13.4165L183.722 13.0472ZM185.162 11.2476L184.756 11.0999L185.162 11.2476ZM177.171 2.89713V2.46513H176.739V2.89713H177.171ZM174.868 30V0.845519H174.004V30H174.868ZM174.436 1.27752H181.022V0.413519H174.436V1.27752ZM181.022 1.27752C182.807 1.27752 184.149 1.57236 185.088 2.11882L185.523 1.37188C184.399 0.718562 182.885 0.413519 181.022 0.413519V1.27752ZM185.099 2.1246C186.066 2.65203 186.754 3.4265 187.173 4.46277L187.974 4.13896C187.481 2.91966 186.657 1.99045 185.512 1.3661L185.099 2.1246ZM187.174 4.46579C187.603 5.50465 187.825 6.76551 187.825 8.26012H188.689C188.689 6.6833 188.455 5.30466 187.972 4.13595L187.174 4.46579ZM187.825 8.26012C187.825 9.30778 187.709 10.2922 187.478 11.2148L188.316 11.4243C188.565 10.4273 188.689 9.37204 188.689 8.26012H187.825ZM187.478 11.2148C187.252 12.1173 186.873 12.8707 186.345 13.4859L187.001 14.0482C187.626 13.3197 188.062 12.4414 188.316 11.4243L187.478 11.2148ZM186.345 13.4859C185.845 14.0701 185.122 14.4746 184.139 14.6756L184.312 15.5221C185.441 15.2912 186.35 14.8077 187.001 14.0482L186.345 13.4859ZM183.812 15.2228L188.275 30.124L189.103 29.876L184.64 14.9749L183.812 15.2228ZM188.689 29.568H186.025V30.432H188.689V29.568ZM186.439 29.8762L182.156 15.551L181.328 15.7985L185.612 30.1238L186.439 29.8762ZM181.742 15.2427H177.171V16.1067H181.742V15.2427ZM176.739 15.6747V30H177.603V15.6747H176.739ZM177.171 29.568H174.436V30.432H177.171V29.568ZM177.171 14.0911H180.878V13.2271H177.171V14.0911ZM180.878 14.0911C182.141 14.0911 183.179 13.8823 183.946 13.4165L183.498 12.6779C182.921 13.028 182.063 13.2271 180.878 13.2271V14.0911ZM183.946 13.4165C184.708 12.9537 185.249 12.2723 185.568 11.3952L184.756 11.0999C184.499 11.8065 184.079 12.3249 183.498 12.6779L183.946 13.4165ZM185.568 11.3952C185.878 10.5406 186.025 9.49065 186.025 8.26012H185.161C185.161 9.42913 185.021 10.3708 184.756 11.0999L185.568 11.3952ZM186.025 8.26012C186.025 6.42456 185.71 4.9749 185.011 3.9805L184.304 4.47726C184.853 5.25853 185.161 6.49635 185.161 8.26012H186.025ZM185.011 3.9805C184.263 2.91567 182.841 2.46513 180.95 2.46513V3.32913C182.755 3.32913 183.805 3.76643 184.304 4.47726L185.011 3.9805ZM180.95 2.46513H177.171V3.32913H180.95V2.46513ZM176.739 2.89713V13.6591H177.603V2.89713H176.739ZM196.642 30H196.21V30.432H196.642V30ZM196.642 2.96912H197.074V2.53712H196.642V2.96912ZM191.135 2.96912H190.703V3.40112H191.135V2.96912ZM191.135 0.845519V0.413519H190.703V0.845519H191.135ZM204.74 0.845519H205.172V0.413519H204.74V0.845519ZM204.74 2.96912V3.40112H205.172V2.96912H204.74ZM199.377 2.96912V2.53712H198.945V2.96912H199.377ZM199.377 30V30.432H199.809V30H199.377ZM197.074 30V2.96912H196.21V30H197.074ZM196.642 2.53712H191.135V3.40112H196.642V2.53712ZM191.567 2.96912V0.845519H190.703V2.96912H191.567ZM191.135 1.27752H204.74V0.413519H191.135V1.27752ZM204.308 0.845519V2.96912H205.172V0.845519H204.308ZM204.74 2.53712H199.377V3.40112H204.74V2.53712ZM198.945 2.96912V30H199.809V2.96912H198.945ZM199.377 29.568H196.642V30.432H199.377V29.568ZM213.129 30H212.697V30.432H213.129V30ZM213.129 20.3178H213.561V20.2467L213.538 20.1794L213.129 20.3178ZM206.542 0.845519V0.413519H205.94L206.133 0.983944L206.542 0.845519ZM209.206 0.845519L209.617 0.712201L209.52 0.413519H209.206V0.845519ZM214.461 17.0425L214.05 17.1758L214.469 18.4689L214.873 17.1708L214.461 17.0425ZM219.5 0.845519V0.413519H219.182L219.087 0.717187L219.5 0.845519ZM222.199 0.845519L222.61 0.980536L222.796 0.413519H222.199V0.845519ZM215.792 20.3178L215.382 20.1828L215.36 20.2486V20.3178H215.792ZM215.792 30V30.432H216.224V30H215.792ZM213.561 30V20.3178H212.697V30H213.561ZM213.538 20.1794L206.951 0.707095L206.133 0.983944L212.72 20.4563L213.538 20.1794ZM206.542 1.27752H209.206V0.413519H206.542V1.27752ZM208.795 0.978838L214.05 17.1758L214.872 16.9091L209.617 0.712201L208.795 0.978838ZM214.873 17.1708L219.912 0.973852L219.087 0.717187L214.048 16.9141L214.873 17.1708ZM219.5 1.27752H222.199V0.413519H219.5V1.27752ZM221.789 0.710503L215.382 20.1828L216.203 20.4528L222.61 0.980536L221.789 0.710503ZM215.36 20.3178V30H216.224V20.3178H215.36ZM215.792 29.568H213.129V30.432H215.792V29.568Z" fill="white"/>
</svg>
