<svg xmlns="http://www.w3.org/2000/svg" width="223" height="31" fill="none">
  <defs/>
  <path fill="#fff" d="M2.52 30V.846h10.546v2.123H5.29v10.942h6.335v2.016H5.29v12.021h7.846V30H2.52zm14.665 0l.72-29.154h2.735l5.759 25.303L32.266.846H35L35.721 30h-2.268l-.576-23.216L27.3 30h-1.764L20.028 6.82 19.452 30h-2.268zm23.992 0V.846h2.735V30h-2.735zm8.447 0V.846h6.586c1.824 0 3.252.3 4.284.9A4.927 4.927 0 0162.76 4.3c.456 1.104.684 2.423.684 3.96 0 1.079-.12 2.099-.36 3.059s-.648 1.775-1.224 2.447c-.576.672-1.391 1.116-2.447 1.332L63.877 30h-2.664L56.93 15.675h-4.57V30h-2.736zm2.735-16.34h3.707c1.224 0 2.172-.205 2.844-.613.672-.408 1.152-1.008 1.44-1.8.288-.791.431-1.787.431-2.987 0-1.8-.311-3.143-.935-4.031-.624-.888-1.86-1.332-3.708-1.332H52.36V13.66zM67 30L73.152.846h2.88L82.222 30h-2.7l-1.439-7.81h-6.947L69.662 30h-2.664zm4.534-9.79h6.191L74.63 4.48l-3.096 15.73zM88.573 30V2.97h-5.506V.845h13.605v2.123H91.31V30h-2.735zm11.809 0V.846h10.546v2.123h-7.775v10.942h6.335v2.016h-6.335v12.021H111V30h-10.618zm21.107.36c-1.583 0-2.903-.324-3.959-.972-1.032-.672-1.812-1.596-2.339-2.771-.528-1.2-.852-2.592-.972-4.176l2.411-.72c.12 1.2.336 2.292.648 3.276.312.96.804 1.728 1.476 2.303.672.552 1.596.828 2.771.828 1.296 0 2.304-.336 3.024-1.008.72-.671 1.08-1.74 1.08-3.203 0-1.296-.324-2.411-.972-3.347-.624-.936-1.488-1.92-2.592-2.952l-5.147-4.93c-.912-.889-1.583-1.8-2.015-2.736-.432-.96-.648-2.004-.648-3.132 0-2.015.6-3.563 1.799-4.643 1.2-1.08 2.796-1.62 4.787-1.62 1.032 0 1.956.133 2.772.396.84.264 1.548.696 2.124 1.296.599.576 1.067 1.332 1.403 2.268.336.936.564 2.075.684 3.42l-2.339.611c-.096-1.224-.3-2.268-.612-3.131-.288-.888-.756-1.56-1.404-2.016-.624-.456-1.5-.684-2.628-.684-1.199 0-2.183.312-2.951.936-.768.624-1.152 1.596-1.152 2.915 0 .792.144 1.512.432 2.16.312.648.852 1.344 1.62 2.088l5.147 4.859a18.615 18.615 0 012.987 3.599c.84 1.32 1.26 2.807 1.26 4.463 0 1.464-.288 2.688-.864 3.672a5.386 5.386 0 01-2.339 2.231c-1.008.48-2.172.72-3.492.72zM140.28 30V.846h6.983c1.751 0 3.131.323 4.139.971 1.008.648 1.716 1.548 2.124 2.7.431 1.152.647 2.507.647 4.067 0 1.368-.228 2.64-.683 3.815a5.673 5.673 0 01-2.196 2.772c-1.008.696-2.34 1.044-3.995 1.044h-4.283V30h-2.736zm2.736-15.837h3.491c1.176 0 2.123-.168 2.843-.504.744-.36 1.284-.948 1.62-1.764.336-.815.504-1.92.504-3.31 0-1.489-.144-2.64-.432-3.456-.288-.84-.792-1.416-1.512-1.728-.696-.336-1.691-.504-2.987-.504h-3.527v11.266zM155.159 30L161.314.846h2.879L170.384 30h-2.699l-1.44-7.81h-6.947L157.823 30h-2.664zm4.535-9.79h6.191L162.79 4.48l-3.096 15.73zM174.436 30V.846h6.586c1.824 0 3.252.3 4.284.9a4.93 4.93 0 012.267 2.555c.456 1.104.684 2.423.684 3.96 0 1.079-.12 2.099-.36 3.059s-.648 1.775-1.224 2.447c-.576.672-1.391 1.116-2.447 1.332L188.689 30h-2.664l-4.283-14.325h-4.571V30h-2.735zm2.735-16.34h3.707c1.224 0 2.172-.205 2.844-.613.672-.408 1.152-1.008 1.44-1.8.288-.791.431-1.787.431-2.987 0-1.8-.311-3.143-.935-4.031-.624-.888-1.86-1.332-3.708-1.332h-3.779V13.66zM196.642 30V2.97h-5.507V.845h13.605v2.123h-5.363V30h-2.735zm16.487 0v-9.682L206.542.846h2.664l5.255 16.197L219.5.846h2.699l-6.407 19.472V30h-2.663z"/>
  <path fill="#fff" d="M2.52 30h-.432v.432h.432V30zm0-29.154V.414h-.432v.432h.432zm10.546 0h.431V.414h-.431v.432zm0 2.123v.432h.431V2.97h-.431zm-7.775 0v-.432h-.432v.432h.432zm0 10.942h-.432v.432h.432v-.432zm6.335 0h.432v-.432h-.432v.432zm0 2.016v.432h.432v-.432h-.432zm-6.335 0v-.432h-.432v.432h.432zm0 12.021h-.432v.432h.432v-.432zm7.846 0h.432v-.432h-.432v.432zm0 2.052v.432h.432V30h-.432zM2.952 30V.846h-.864V30h.864zM2.52 1.278h10.546V.414H2.52v.864zM12.634.846v2.123h.864V.846h-.864zm.431 1.691H5.292v.864h7.774v-.864zM4.86 2.97v10.942h.864V2.969h-.864zm.432 11.374h6.335v-.864H5.29v.864zm5.903-.432v2.016h.864V13.91h-.864zm.432 1.584H5.29v.864h6.335v-.864zm-6.767.432v12.021h.864V15.927h-.864zm.432 12.453h7.846v-.864H5.291v.864zm7.415-.432V30h.864v-2.052h-.864zm.431 1.62H2.52v.864h10.617v-.864zm4.047.432l-.431-.01-.011.442h.442V30zm.72-29.154V.414h-.421l-.01.42.431.012zm2.736 0L21.06.75l-.076-.336h-.345v.432zm5.759 25.303l-.422.096.843.001-.421-.097zM32.266.846V.414h-.344l-.077.334.42.098zm2.735 0l.432-.011-.01-.421H35v.432zM35.721 30v.432h.443l-.011-.443-.432.011zm-2.268 0l-.431.01.01.422h.421V30zm-.576-23.216l.432-.01-.851-.09.42.1zM27.3 30v.432h.34l.08-.331-.42-.101zm-1.764 0l-.42.1.079.332h.34V30zM20.028 6.82l.42-.1-.852.09.432.01zM19.452 30v.432h.421l.01-.421-.43-.011zm-1.836.01l.72-29.154-.863-.021-.72 29.154.863.022zm.288-28.732h2.736V.414h-2.736v.864zM20.22.94l5.758 25.304.843-.192L21.061.75 20.22.94zm6.6 25.305L32.688.943l-.842-.195-5.867 25.303.842.195zm5.447-24.968H35V.414h-2.735v.864zm2.303-.422l.72 29.155.864-.022-.72-29.154-.864.021zm1.152 28.712h-2.268v.864h2.268v-.864zm-1.836.421L33.31 6.774l-.863.021.576 23.216.863-.022zM32.458 6.683L26.878 29.9l.84.202 5.58-23.216-.84-.202zm-5.16 22.885h-1.763v.864h1.764v-.864zm-1.343.332L20.448 6.72l-.84.2 5.507 23.18.84-.2zM19.596 6.81l-.576 23.18.864.02.576-23.179-.864-.021zm-.144 22.758h-2.268v.864h2.268v-.864zM41.177 30h-.432v.432h.432V30zm0-29.154V.414h-.432v.432h.432zm2.735 0h.432V.414h-.432v.432zm0 29.154v.432h.432V30h-.432zm-2.303 0V.846h-.864V30h.864zm-.432-28.722h2.735V.414h-2.735v.864zM43.48.846V30h.864V.846h-.864zm.432 28.722h-2.735v.864h2.735v-.864zm5.712.432h-.432v.432h.432V30zm0-29.154V.414h-.432v.432h.432zm10.87.9l-.218.373.01.006.208-.38zM62.76 4.3l-.4.162v.003l.4-.165zm.324 7.018l-.419-.104.42.104zm-1.224 2.448l-.328-.281.328.281zM59.414 15.1l-.087-.423-.463.094.136.453.414-.124zM63.877 30v.432h.58l-.166-.556-.414.124zm-2.664 0l-.413.124.092.308h.321V30zM56.93 15.675l.414-.124-.092-.308h-.322v.432zm-4.57 0v-.432h-.433v.432h.432zm0 14.325v.432h.431V30h-.432zm0-16.34h-.433v.431h.432v-.432zm6.55-.613l.224.37-.224-.37zm1.44-1.8l-.406-.147.406.148zm-7.99-8.35v-.432h-.433v.432h.432zM50.055 30V.846h-.864V30h.864zm-.432-28.722h6.586V.414h-6.586v.864zm6.586 0c1.785 0 3.127.294 4.066.84l.435-.746c-1.124-.653-2.638-.958-4.5-.958v.864zm4.077.847c.967.527 1.655 1.301 2.074 2.338l.8-.324c-.492-1.22-1.316-2.149-2.46-2.773l-.414.759zm2.075 2.34c.429 1.04.651 2.3.651 3.795h.864c0-1.577-.234-2.955-.717-4.124l-.798.33zm.651 3.795c0 1.048-.116 2.032-.347 2.955l.838.21c.25-.998.373-2.053.373-3.165h-.864zm-.347 2.955c-.226.902-.605 1.656-1.133 2.27l.656.563c.625-.728 1.06-1.607 1.315-2.624l-.838-.21zm-1.133 2.27c-.5.585-1.223.99-2.206 1.19l.173.847c1.13-.23 2.038-.714 2.69-1.474l-.657-.562zM59 15.224l4.463 14.901.828-.248-4.463-14.901-.828.248zm4.877 14.345h-2.664v.864h2.664v-.864zm-2.25.308l-4.283-14.325-.828.248L60.8 30.123l.827-.248zM56.93 15.243h-4.57v.864h4.57v-.864zm-5.003.432V30h.864V15.675h-.864zm.432 13.893h-2.735v.864h2.735v-.864zm0-15.477h3.707v-.864H52.36v.864zm3.707 0c1.263 0 2.3-.209 3.068-.675l-.448-.738c-.577.35-1.434.55-2.62.55v.863zm3.068-.675c.762-.462 1.303-1.144 1.622-2.02l-.812-.296c-.257.707-.677 1.225-1.258 1.578l.448.738zm1.622-2.02c.31-.855.458-1.905.458-3.136h-.864c0 1.17-.141 2.11-.406 2.84l.812.295zm.458-3.136c0-1.835-.316-3.285-1.015-4.28l-.707.497c.55.782.858 2.02.858 3.783h.864zm-1.015-4.28c-.748-1.064-2.17-1.515-4.06-1.515v.864c1.804 0 2.854.437 3.353 1.148l.707-.497zm-4.06-1.515h-3.78v.864h3.78v-.864zm-4.212.432V13.66h.864V2.897h-.864zM66.998 30l-.422-.09-.11.522h.532V30zM73.153.846V.414h-.35l-.073.342.423.09zm2.88 0l.422-.09-.073-.342h-.35v.432zM82.222 30v.432h.534l-.111-.522-.423.09zm-2.7 0l-.424.078.065.354h.36V30zm-1.439-7.81l.425-.079-.065-.354h-.36v.432zm-6.947 0v-.433h-.358l-.066.352.424.08zM69.662 30v.432h.358l.066-.352-.424-.08zm1.871-9.79l-.424-.084-.1.516h.524v-.432zm6.191 0v.432h.525l-.1-.516-.425.084zM74.63 4.48l.424-.083h-.848l.424.084zM67.42 30.09L73.576.934 72.73.756l-6.154 29.155.845.178zm5.732-28.812h2.88V.414h-2.88v.864zM75.61.935L81.8 30.09l.846-.18L76.456.756l-.846.18zm6.613 28.633h-2.7v.864h2.7v-.864zm-2.274.354l-1.44-7.81-.85.156 1.44 7.81.85-.156zm-1.865-8.165h-6.947v.864h6.947v-.863zm-7.371.352l-1.476 7.81.85.161 1.475-7.81-.85-.16zm-1.051 7.459h-2.664v.864h2.664v-.864zm1.871-8.926h6.191v-.864h-6.19v.864zm6.615-.516L75.053 4.397l-.848.167 3.095 15.73.848-.168zM74.205 4.397l-3.096 15.73.848.166 3.096-15.729-.848-.167zM88.574 30h-.432v.432h.432V30zm0-27.03h.432v-.433h-.432v.432zm-5.507 0h-.432V3.4h.432V2.97zm0-2.124V.414h-.432v.432h.432zm13.605 0h.432V.414h-.432v.432zm0 2.123v.432h.432V2.97h-.432zm-5.363 0v-.432h-.432v.432h.432zm0 27.031v.432h.432V30h-.432zm-2.303 0V2.97h-.864V30h.864zm-.432-27.463h-5.507v.864h5.507v-.864zm-5.075.432V.846h-.864v2.123h.864zm-.432-1.691h13.605V.414H83.067v.864zM96.24.846v2.123h.864V.846h-.864zm.432 1.691H91.31v.864h5.363v-.864zm-5.795.432V30h.864V2.97h-.864zm.432 26.599h-2.735v.864h2.735v-.864zm9.073.432h-.432v.432h.432V30zm0-29.154V.414h-.432v.432h.432zm10.546 0h.432V.414h-.432v.432zm0 2.123v.432h.432V2.97h-.432zm-7.775 0v-.432h-.432v.432h.432zm0 10.942h-.432v.432h.432v-.432zm6.335 0h.432v-.432h-.432v.432zm0 2.016v.432h.432v-.432h-.432zm-6.335 0v-.432h-.432v.432h.432zm0 12.021h-.432v.432h.432v-.432zm7.847 0h.432v-.432H111v.432zM111 30v.432h.432V30H111zm-10.186 0V.846h-.864V30h.864zm-.432-28.722h10.546V.414h-10.546v.864zm10.114-.432v2.123h.864V.846h-.864zm.432 1.691h-7.775v.864h7.775v-.864zm-8.207.432v10.942h.864V2.969h-.864zm.432 11.374h6.335v-.864h-6.335v.864zm5.903-.432v2.016h.864V13.91h-.864zm.432 1.584h-6.335v.864h6.335v-.864zm-6.767.432v12.021h.864V15.927h-.864zm.432 12.453H111v-.864h-7.847v.864zm7.415-.432V30h.864v-2.052h-.864zm.432 1.62h-10.618v.864H111v-.864zm6.53-.18l-.236.362.01.006.226-.368zm-2.339-2.771l-.396.174.001.003.395-.177zm-.972-4.176l-.124-.413-.333.099.026.347.431-.033zm2.411-.72l.43-.042-.052-.521-.501.15.123.414zm.648 3.276l-.412.13.001.004.411-.134zm1.476 2.303l-.281.329.007.005.274-.334zm5.795-.18l-.295-.315.295.316zm.108-6.55l-.36.24.005.006.355-.246zm-2.592-2.952l-.299.312.004.004.295-.316zm-5.147-4.93l-.301.309.002.002.299-.312zm-2.015-2.736l-.394.177.001.004.393-.181zm1.151-7.775l-.289-.32.289.32zm7.559-1.224l-.133.412h.003l.13-.411zm2.124 1.296l-.312.3.006.006.006.006.3-.312zm1.403 2.268l-.406.146.406-.146zm.684 3.42l.109.417.354-.092-.033-.364-.43.038zm-2.339.611l-.431.034.04.515.5-.131-.109-.418zm-.612-3.131l-.411.133.002.007.002.006.407-.146zM123.469 3.4l-.255.349.006.004.249-.353zm-5.579.252l-.272-.335.272.335zm-.72 5.075l-.395.176.006.011.389-.187zm1.62 2.088l-.301.31.004.004.297-.314zm5.147 4.859l-.297.314h.001l.296-.314zm2.987 3.599l-.364.232.364-.232zm.396 8.134l-.373-.218-.004.007.377.212zm-2.339 2.232l.185.39.008-.004-.193-.386zm-3.492.288c-1.525 0-2.762-.312-3.733-.908l-.452.736c1.14.7 2.544 1.036 4.185 1.036v-.864zm-3.723-.902c-.959-.624-1.686-1.482-2.181-2.586l-.789.354c.561 1.247 1.394 2.237 2.498 2.956l.472-.724zm-2.18-2.583c-.505-1.147-.819-2.49-.936-4.034l-.862.065c.123 1.622.456 3.064 1.007 4.317l.791-.348zm-1.244-3.588l2.412-.72-.247-.827-2.412.72.247.827zm1.858-1.09c.123 1.224.344 2.346.666 3.363l.824-.262c-.302-.95-.512-2.013-.63-3.187l-.86.086zm.667 3.366c.333 1.024.865 1.863 1.606 2.497l.562-.655c-.603-.518-1.055-1.214-1.346-2.11l-.822.268zm1.613 2.503c.772.635 1.805.926 3.045.926v-.864c-1.111 0-1.926-.26-2.497-.73l-.548.668zm3.045.926c1.37 0 2.496-.356 3.319-1.124l-.59-.631c-.617.576-1.507.891-2.729.891v.864zm3.319-1.124c.842-.786 1.217-1.994 1.217-3.519h-.864c0 1.402-.346 2.33-.943 2.888l.59.631zm1.217-3.519c0-1.37-.344-2.575-1.049-3.593l-.71.492c.591.854.895 1.88.895 3.101h.864zm-1.045-3.587c-.647-.971-1.535-1.98-2.656-3.027l-.59.63c1.087 1.017 1.927 1.976 2.527 2.876l.719-.479zm-2.652-3.024l-5.147-4.93-.598.623 5.147 4.931.598-.624zm-5.144-4.928c-.883-.86-1.52-1.73-1.925-2.607l-.785.362c.459.994 1.166 1.947 2.107 2.864l.603-.62zm-1.923-2.603c-.406-.9-.61-1.884-.61-2.955h-.864c0 1.185.227 2.29.686 3.31l.788-.355zm-.61-2.955c0-1.926.569-3.343 1.656-4.322l-.578-.642c-1.312 1.181-1.942 2.859-1.942 4.964h.864zm1.656-4.322c1.103-.992 2.588-1.508 4.498-1.508V.126c-2.072 0-3.779.563-5.076 1.73l.578.642zM120.841.99c.996 0 1.874.127 2.639.375l.266-.823c-.867-.28-1.836-.416-2.905-.416V.99zm2.642.376a4.512 4.512 0 011.942 1.182l.623-.598a5.372 5.372 0 00-2.306-1.409l-.259.825zm1.954 1.195c.544.521.979 1.217 1.297 2.102l.813-.292c-.354-.987-.855-1.803-1.511-2.433l-.599.623zm1.297 2.102c.32.891.542 1.992.66 3.312l.86-.077c-.122-1.369-.355-2.547-.707-3.527l-.813.292zm.981 2.855l-2.34.612.219.836 2.339-.612-.218-.836zm-1.8.996c-.098-1.25-.307-2.334-.636-3.244l-.813.293c.296.818.494 1.822.588 3.019l.861-.068zm-.631-3.23c-.312-.961-.829-1.717-1.566-2.236l-.498.706c.559.393.977.98 1.242 1.796l.822-.267zm-1.56-2.232c-.725-.53-1.703-.767-2.883-.767v.864c1.077 0 1.85.219 2.373.6l.51-.697zm-2.883-.767c-1.277 0-2.363.334-3.223 1.033l.544.67c.676-.549 1.557-.839 2.679-.839v-.864zm-3.223 1.033c-.9.731-1.312 1.847-1.312 3.25h.864c0-1.236.357-2.063.992-2.58l-.544-.67zm-1.312 3.25c0 .846.154 1.626.469 2.335l.79-.35c-.261-.587-.395-1.246-.395-1.985h-.864zm.475 2.347c.342.71.92 1.447 1.708 2.21l.601-.62c-.747-.724-1.249-1.379-1.531-1.964l-.778.374zm1.712 2.215l5.147 4.859.593-.628-5.147-4.86-.593.629zm5.148 4.86a18.166 18.166 0 012.919 3.516l.729-.464a19.069 19.069 0 00-3.057-3.682l-.591.63zm2.919 3.516c.793 1.246 1.192 2.653 1.192 4.231h.864c0-1.733-.441-3.302-1.327-4.695l-.729.464zm1.192 4.231c0 1.409-.277 2.552-.805 3.453l.746.437c.624-1.067.923-2.37.923-3.89h-.864zm-.809 3.46a4.953 4.953 0 01-2.155 2.057l.386.772a5.82 5.82 0 002.523-2.406l-.754-.423zm-2.148 2.053c-.94.448-2.039.678-3.306.678v.864c1.373 0 2.602-.25 3.677-.762l-.371-.78zm15.485.75h-.432v.432h.432V30zm0-29.154V.414h-.432v.432h.432zm13.246 3.67l-.408.145.003.008.405-.152zm-.036 7.883l-.403-.156-.002.005.405.151zm-2.196 2.772l-.242-.358-.003.002.245.356zm-8.278 1.044v-.432h-.432v.432h.432zm0 13.785v.432h.432V30h-.432zm0-15.837h-.432v.432h.432v-.432zm6.334-.504l.183.392.005-.003-.188-.389zm1.62-1.764l.399.165-.399-.165zm.072-6.766l-.409.14.002.003.407-.143zM149.53 3.4l-.188.39.008.003.009.003.171-.396zm-6.514-.504v-.432h-.432v.432h.432zM140.712 30V.846h-.864V30h.864zm-.432-28.722h6.983V.414h-6.983v.864zm6.983 0c1.705 0 2.992.316 3.905.903l.468-.727c-1.103-.709-2.575-1.04-4.373-1.04v.864zm3.905.903c.926.595 1.574 1.417 1.95 2.48l.815-.288c-.439-1.24-1.207-2.218-2.297-2.92l-.468.728zm1.953 2.488c.41 1.092.62 2.394.62 3.915h.864c0-1.598-.221-3.008-.675-4.219l-.809.304zm.62 3.915c0 1.319-.219 2.537-.654 3.66l.805.312c.477-1.23.713-2.555.713-3.972h-.864zm-.656 3.664a5.237 5.237 0 01-2.033 2.565l.484.716a6.107 6.107 0 002.358-2.978l-.809-.303zm-2.036 2.567c-.915.632-2.152.968-3.75.968v.864c1.713 0 3.139-.36 4.24-1.12l-.49-.712zm-3.75.968h-4.283v.864h4.283v-.864zm-4.715.432V30h.864V16.215h-.864zm.432 13.353h-2.736v.864h2.736v-.864zm0-14.973h3.491v-.864h-3.491v.864zm3.491 0c1.211 0 2.228-.172 3.026-.544l-.365-.783c-.642.3-1.521.463-2.661.463v.864zm3.031-.547c.847-.41 1.458-1.081 1.831-1.988l-.798-.33c-.299.726-.767 1.23-1.409 1.54l.376.778zm1.831-1.988c.367-.89.537-2.057.537-3.476h-.864c0 1.364-.166 2.405-.471 3.147l.798.329zm.537-3.476c0-1.507-.145-2.715-.457-3.6l-.814.288c.264.748.407 1.843.407 3.312h.864zm-.455-3.595c-.322-.938-.902-1.617-1.749-1.984l-.343.792c.593.257 1.02.73 1.274 1.472l.818-.28zm-1.733-1.977c-.781-.377-1.853-.547-3.175-.547v.864c1.269 0 2.189.166 2.799.461l.376-.778zm-3.175-.547h-3.527v.864h3.527v-.864zm-3.959.432v11.266h.864V2.897h-.864zM155.159 30l-.423-.09-.11.522h.533V30zM161.314.846V.414h-.35l-.073.342.423.09zm2.879 0l.423-.09-.073-.342h-.35v.432zM170.384 30v.432h.534l-.111-.522-.423.09zm-2.699 0l-.425.078.065.354h.36V30zm-1.44-7.81l.425-.079-.065-.354h-.36v.432zm-6.947 0v-.433h-.358l-.066.352.424.08zM157.823 30v.432h.358l.066-.352-.424-.08zm1.871-9.79l-.424-.084-.101.516h.525v-.432zm6.191 0v.432h.525l-.101-.516-.424.084zM162.79 4.48l.423-.083h-.847l.424.084zm-7.208 25.61L161.737.934l-.846-.179-6.155 29.155.846.178zm5.732-28.812h2.879V.414h-2.879v.864zm2.457-.343l6.191 29.155.845-.18L164.616.756l-.845.18zm6.613 28.633h-2.699v.864h2.699v-.864zm-2.275.354l-1.439-7.81-.85.156 1.44 7.81.849-.156zm-1.864-8.165h-6.947v.864h6.947v-.863zm-7.371.352l-1.476 7.81.849.161 1.476-7.81-.849-.16zm-1.051 7.459h-2.664v.864h2.664v-.864zm1.871-8.926h6.191v-.864h-6.191v.864zm6.615-.516l-3.096-15.729-.847.167 3.095 15.73.848-.168zm-3.943-15.729l-3.096 15.73.848.166 3.095-15.729-.847-.167zM174.436 30h-.432v.432h.432V30zm0-29.154V.414h-.432v.432h.432zm10.87.9l-.218.373.011.006.207-.38zm2.267 2.555l-.4.162.001.003.399-.165zm.324 7.018l-.419-.104.419.104zm-1.224 2.448l-.328-.281.328.281zm-2.447 1.332l-.087-.423-.463.094.136.453.414-.124zM188.689 30v.432h.58l-.166-.556-.414.124zm-2.664 0l-.413.124.092.308h.321V30zm-4.283-14.325l.414-.124-.092-.308h-.322v.432zm-4.571 0v-.432h-.432v.432h.432zm0 14.325v.432h.432V30h-.432zm0-16.34h-.432v.431h.432v-.432zm6.551-.613l.224.37-.224-.37zm1.44-1.8l-.406-.147.406.148zm-7.991-8.35v-.432h-.432v.432h.432zM174.868 30V.846h-.864V30h.864zm-.432-28.722h6.586V.414h-6.586v.864zm6.586 0c1.785 0 3.127.294 4.066.84l.435-.746c-1.124-.653-2.638-.958-4.501-.958v.864zm4.077.847c.967.527 1.655 1.301 2.074 2.338l.801-.324a5.359 5.359 0 00-2.462-2.773l-.413.759zm2.075 2.34c.429 1.04.651 2.3.651 3.795h.864c0-1.577-.234-2.955-.717-4.124l-.798.33zm.651 3.795c0 1.048-.116 2.032-.347 2.955l.838.21c.249-.998.373-2.053.373-3.165h-.864zm-.347 2.955c-.226.902-.605 1.656-1.133 2.27l.656.563c.625-.728 1.061-1.607 1.315-2.624l-.838-.21zm-1.133 2.27c-.5.585-1.223.99-2.206 1.19l.173.847c1.129-.23 2.038-.714 2.689-1.474l-.656-.562zm-2.533 1.738l4.463 14.901.828-.248-4.463-14.901-.828.248zm4.877 14.345h-2.664v.864h2.664v-.864zm-2.25.308l-4.283-14.325-.828.248 4.284 14.325.827-.248zm-4.697-14.633h-4.571v.864h4.571v-.864zm-5.003.432V30h.864V15.675h-.864zm.432 13.893h-2.735v.864h2.735v-.864zm0-15.477h3.707v-.864h-3.707v.864zm3.707 0c1.263 0 2.301-.209 3.068-.675l-.448-.738c-.577.35-1.435.55-2.62.55v.863zm3.068-.675c.762-.462 1.303-1.144 1.622-2.02l-.812-.296c-.257.707-.677 1.225-1.258 1.578l.448.738zm1.622-2.02c.31-.855.457-1.905.457-3.136h-.864c0 1.17-.14 2.11-.405 2.84l.812.295zm.457-3.136c0-1.835-.315-3.285-1.014-4.28l-.707.497c.549.782.857 2.02.857 3.783h.864zm-1.014-4.28c-.748-1.064-2.17-1.515-4.061-1.515v.864c1.805 0 2.855.437 3.354 1.148l.707-.497zm-4.061-1.515h-3.779v.864h3.779v-.864zm-4.211.432V13.66h.864V2.897h-.864zM196.642 30h-.432v.432h.432V30zm0-27.03h.432v-.433h-.432v.432zm-5.507 0h-.432V3.4h.432V2.97zm0-2.124V.414h-.432v.432h.432zm13.605 0h.432V.414h-.432v.432zm0 2.123v.432h.432V2.97h-.432zm-5.363 0v-.432h-.432v.432h.432zm0 27.031v.432h.432V30h-.432zm-2.303 0V2.97h-.864V30h.864zm-.432-27.463h-5.507v.864h5.507v-.864zm-5.075.432V.846h-.864v2.123h.864zm-.432-1.691h13.605V.414h-13.605v.864zm13.173-.432v2.123h.864V.846h-.864zm.432 1.691h-5.363v.864h5.363v-.864zm-5.795.432V30h.864V2.97h-.864zm.432 26.599h-2.735v.864h2.735v-.864zm13.752.432h-.432v.432h.432V30zm0-9.682h.432v-.071l-.023-.068-.409.139zM206.542.846V.414h-.602l.193.57.409-.138zm2.664 0l.411-.134-.097-.298h-.314v.432zm5.255 16.197l-.411.133.419 1.293.404-1.298-.412-.128zM219.5.846V.414h-.318l-.095.303.413.129zm2.699 0l.411.135.186-.567h-.597v.432zm-6.407 19.472l-.41-.135-.022.066v.069h.432zm0 9.682v.432h.432V30h-.432zm-2.231 0v-9.682h-.864V30h.864zm-.023-9.82L206.951.706l-.818.277 6.587 19.472.818-.277zm-6.996-18.902h2.664V.414h-2.664v.864zm2.253-.3l5.255 16.198.822-.267L209.617.712l-.822.267zm6.078 16.193L219.912.974l-.825-.257-5.039 16.197.825.257zM219.5 1.278h2.699V.414H219.5v.864zm2.289-.567l-6.407 19.472.821.27L222.61.98l-.821-.27zm-6.429 19.607V30h.864v-9.682h-.864zm.432 9.25h-2.663v.864h2.663v-.864z"/>
</svg>
