<svg width="28" height="28" viewBox="0 0 28 28" fill="none" xmlns="http://www.w3.org/2000/svg">
<path d="M14.003 2H13.997C7.3805 2 2 7.382 2 14C2 16.625 2.846 19.058 4.2845 21.0335L2.789 25.4915L7.4015 24.017C9.299 25.274 11.5625 26 14.003 26C20.6195 26 26 20.6165 26 14C26 7.3835 20.6195 2 14.003 2ZM20.9855 18.9455C20.696 19.763 19.547 20.441 18.6305 20.639C18.0035 20.7725 17.1845 20.879 14.4275 19.736C10.901 18.275 8.63 14.6915 8.453 14.459C8.2835 14.2265 7.028 12.5615 7.028 10.8395C7.028 9.1175 7.9025 8.279 8.255 7.919C8.5445 7.6235 9.023 7.4885 9.482 7.4885C9.6305 7.4885 9.764 7.496 9.884 7.502C10.2365 7.517 10.4135 7.538 10.646 8.0945C10.9355 8.792 11.6405 10.514 11.7245 10.691C11.81 10.868 11.8955 11.108 11.7755 11.3405C11.663 11.5805 11.564 11.687 11.387 11.891C11.21 12.095 11.042 12.251 10.865 12.47C10.703 12.6605 10.52 12.8645 10.724 13.217C10.928 13.562 11.633 14.7125 12.671 15.6365C14.0105 16.829 15.0965 17.21 15.485 17.372C15.7745 17.492 16.1195 17.4635 16.331 17.2385C16.5995 16.949 16.931 16.469 17.2685 15.9965C17.5085 15.6575 17.8115 15.6155 18.1295 15.7355C18.4535 15.848 20.168 16.6955 20.5205 16.871C20.873 17.048 21.1055 17.132 21.191 17.2805C21.275 17.429 21.275 18.1265 20.9855 18.9455Z" fill="white"/>
</svg>
